<?xml version="1.0" encoding="UTF-8" standalone="no"?>
<!DOCTYPE svg PUBLIC "-//W3C//DTD SVG 1.1//EN" "http://www.w3.org/Graphics/SVG/1.1/DTD/svg11.dtd">
<svg version="1.1" xmlns="http://www.w3.org/2000/svg" xmlns:xlink="http://www.w3.org/1999/xlink" preserveAspectRatio="xMidYMid meet" viewBox="0 0 300 300" width="300" height="300"><defs><path d="M157.14 162.15C119.79 162.15 89.46 132.69 89.46 96.41C89.46 60.12 119.79 30.66 157.14 30.66C194.5 30.66 224.82 60.12 224.82 96.41C224.82 132.69 194.5 162.15 157.14 162.15Z" id="a1q6kuZU39"></path><path d="M157.14 269.62C119.79 269.62 89.46 241.64 89.46 207.19C89.46 172.73 119.79 144.76 157.14 144.76C194.5 144.76 224.82 172.73 224.82 207.19C224.82 241.64 194.5 269.62 157.14 269.62Z" id="a70uov7hf"></path><path d="M157.14 30.66L157.14 269.34L81.45 269.34L81.45 30.66L157.14 30.66Z" id="c1geep02t2"></path></defs><g><g><g><use xlink:href="#a1q6kuZU39" opacity="1" fill="#e62429" fill-opacity="1"></use><g><use xlink:href="#a1q6kuZU39" opacity="1" fill-opacity="0" stroke="#000000" stroke-width="1" stroke-opacity="0"></use></g></g><g><use xlink:href="#a70uov7hf" opacity="1" fill="#e62429" fill-opacity="1"></use><g><use xlink:href="#a70uov7hf" opacity="1" fill-opacity="0" stroke="#000000" stroke-width="1" stroke-opacity="0"></use></g></g><g><use xlink:href="#c1geep02t2" opacity="1" fill="#000000" fill-opacity="1"></use><g><use xlink:href="#c1geep02t2" opacity="1" fill-opacity="0" stroke="#000000" stroke-width="1" stroke-opacity="0"></use></g></g></g></g></svg>