<?xml version="1.0" encoding="UTF-8" standalone="no"?>
<!DOCTYPE svg PUBLIC "-//W3C//DTD SVG 1.1//EN" "http://www.w3.org/Graphics/SVG/1.1/DTD/svg11.dtd">
<svg version="1.1" xmlns="http://www.w3.org/2000/svg" xmlns:xlink="http://www.w3.org/1999/xlink" preserveAspectRatio="xMidYMid meet" viewBox="0 0 300 300" width="300" height="300"><defs><path d="M152.08 300C69.29 300 2.08 232.79 2.08 150C2.08 67.21 69.29 0 152.08 0C234.87 0 302.08 67.21 302.08 150C302.08 232.79 234.87 300 152.08 300Z" id="a74hMnktQu"></path><path d="M167.23 155.52C129.88 155.52 99.55 127.54 99.55 93.09C99.55 58.63 129.88 30.66 167.23 30.66C204.59 30.66 234.91 58.63 234.91 93.09C234.91 127.54 204.59 155.52 167.23 155.52Z" id="a2teWEMWmx"></path><path d="M167.23 269.34C129.88 269.34 99.55 241.36 99.55 206.91C99.55 172.45 129.88 144.48 167.23 144.48C204.59 144.48 234.91 172.45 234.91 206.91C234.91 241.36 204.59 269.34 167.23 269.34Z" id="aLoa113AH"></path><path d="M157.14 30.66L157.14 269.34L81.45 269.34L81.45 30.66L157.14 30.66Z" id="g1VNvcHLQc"></path></defs><g><g><g><use xlink:href="#a74hMnktQu" opacity="1" fill="#ffffff" fill-opacity="1"></use><g><use xlink:href="#a74hMnktQu" opacity="1" fill-opacity="0" stroke="#000080" stroke-width="3" stroke-opacity="1"></use></g></g><g><use xlink:href="#a2teWEMWmx" opacity="1" fill="#138808" fill-opacity="1"></use><g><use xlink:href="#a2teWEMWmx" opacity="1" fill-opacity="0" stroke="#000000" stroke-width="1" stroke-opacity="0"></use></g></g><g><use xlink:href="#aLoa113AH" opacity="1" fill="#138808" fill-opacity="1"></use><g><use xlink:href="#aLoa113AH" opacity="1" fill-opacity="0" stroke="#000000" stroke-width="1" stroke-opacity="0"></use></g></g><g><use xlink:href="#g1VNvcHLQc" opacity="1" fill="#ff9933" fill-opacity="1"></use><g><use xlink:href="#g1VNvcHLQc" opacity="1" fill-opacity="0" stroke="#000000" stroke-width="1" stroke-opacity="0"></use></g></g></g></g></svg>