<?xml version="1.0" encoding="UTF-8" standalone="no"?>
<!DOCTYPE svg PUBLIC "-//W3C//DTD SVG 1.1//EN" "http://www.w3.org/Graphics/SVG/1.1/DTD/svg11.dtd">
<svg version="1.1" xmlns="http://www.w3.org/2000/svg" xmlns:xlink="http://www.w3.org/1999/xlink" preserveAspectRatio="xMidYMid meet" viewBox="0 0 640 640" width="640" height="640"><defs><path d="M320 414.41C267.17 414.41 224.39 371.63 224.39 318.8C224.39 296.48 224.39 117.93 224.39 95.61C224.39 42.78 267.17 0 320 0C320 0 320 0 320 0C372.83 0 415.61 42.78 415.61 95.61C415.61 117.93 415.61 296.48 415.61 318.8C415.61 371.63 372.83 414.41 320 414.41C320 414.41 320 414.41 320 414.41Z" id="b5s9N2I1yi"></path><path d="M351.97 523.08C351.97 523.08 351.97 523.08 351.97 523.08C351.97 593.23 351.97 632.21 351.97 640C351.97 640 351.97 640 351.97 640C313.7 640 292.43 640 288.18 640C288.18 640 288.18 640 288.18 640C288.18 569.85 288.18 530.87 288.18 523.08C288.18 523.08 288.18 523.08 288.18 523.08C326.45 523.08 347.72 523.08 351.97 523.08Z" id="a3UyPdZPxn"></path><path d="M479.7 320C479.55 407.95 407.95 479.55 320 479.55C275.87 479.55 235.8 461.54 206.83 432.42C202.37 436.88 166.71 472.54 162.25 477C202.63 517.37 258.31 542.44 320 542.44C320 542.44 320 542.44 320 542.44C442.93 542.44 542.59 442.78 542.74 319.85C538.54 319.85 517.52 319.85 479.7 319.85C479.7 319.93 479.7 319.98 479.7 320Z" id="b2VPwZk62"></path><path d="M160.3 320C154 320 103.56 320 97.26 320C97.26 381.24 122.18 436.77 162.25 477C165.22 474.03 180.08 459.17 206.83 432.42C175.81 386.69 160.3 349.22 160.3 320Z" id="a4omcUv1Kt"></path></defs><g><g><g><use xlink:href="#b5s9N2I1yi" opacity="1" fill="#ff9933" fill-opacity="1"></use><g><use xlink:href="#b5s9N2I1yi" opacity="1" fill-opacity="0" stroke="#000000" stroke-width="1" stroke-opacity="0"></use></g></g><g><use xlink:href="#a3UyPdZPxn" opacity="1" fill="#34a853" fill-opacity="1"></use><g><use xlink:href="#a3UyPdZPxn" opacity="1" fill-opacity="0" stroke="#000000" stroke-width="1" stroke-opacity="0"></use></g></g><g><use xlink:href="#b2VPwZk62" opacity="1" fill="#000080" fill-opacity="1"></use><g><use xlink:href="#b2VPwZk62" opacity="1" fill-opacity="0" stroke="#000000" stroke-width="1" stroke-opacity="0"></use></g></g><g><use xlink:href="#a4omcUv1Kt" opacity="1" fill="#c0c0c0" fill-opacity="1"></use><g><use xlink:href="#a4omcUv1Kt" opacity="1" fill-opacity="0" stroke="#000000" stroke-width="1" stroke-opacity="0"></use></g></g></g></g></svg>